<svg width="196.000000" height="77.000000" viewBox="0 0 196 77" fill="none" xmlns="http://www.w3.org/2000/svg" xmlns:xlink="http://www.w3.org/1999/xlink">
	<desc>
			Created with Pixso.
	</desc>
	<defs>
		<clipPath id="clip2_76">
			<rect id="IMAGE" rx="-0.500000" width="195.000000" height="76.000000" transform="translate(0.500000 0.500000)" fill="white" fill-opacity="0"/>
		</clipPath>
	</defs>
	<g clip-path="url(#clip2_76)">
		<path id="Vector" d="M27.45 30.06C30.01 26.64 34.1 24.42 38.72 24.42C43.36 24.42 47.48 26.66 50.03 30.12C49.92 30.23 49.83 30.35 49.74 30.46C49.27 31.07 48.92 31.84 48.63 32.63C48.07 34.22 47.63 36.29 47.23 38.23L47.2 38.41C46.8 40.34 46.42 42.15 45.97 43.48C45.77 44.08 45.58 44.51 45.41 44.78C45.23 44.51 45.03 44.08 44.82 43.47C44.34 42.09 43.93 40.22 43.5 38.22L43.49 38.16L43.49 38.16C43.08 36.24 42.64 34.2 42.1 32.64C41.82 31.86 41.49 31.09 41.05 30.49C40.61 29.91 39.9 29.24 38.85 29.24C37.8 29.24 37.08 29.9 36.64 30.48C36.2 31.07 35.85 31.84 35.56 32.62C34.98 34.2 34.51 36.26 34.06 38.21L34.02 38.41C33.58 40.33 33.17 42.13 32.71 43.47C32.53 43.98 32.37 44.37 32.22 44.65C32.07 44.37 31.91 43.99 31.73 43.48C31.29 42.17 30.9 40.42 30.48 38.54L30.41 38.21C29.98 36.27 29.51 34.2 28.92 32.62C28.63 31.83 28.27 31.06 27.81 30.46C27.7 30.33 27.58 30.19 27.45 30.06ZM25.9 32.69C26.02 32.93 26.15 33.23 26.29 33.59C26.79 34.96 27.23 36.82 27.67 38.82L27.76 39.2C28.16 41.02 28.58 42.91 29.07 44.37C29.34 45.15 29.66 45.91 30.06 46.5C30.45 47.06 31.15 47.78 32.21 47.78C33.28 47.78 33.97 47.07 34.36 46.51C34.77 45.92 35.1 45.16 35.37 44.38C35.88 42.89 36.32 40.96 36.74 39.1L36.74 39.1L36.8 38.82C37.25 36.83 37.69 34.96 38.2 33.58C38.43 32.94 38.65 32.5 38.84 32.22C39.02 32.5 39.23 32.93 39.44 33.56C39.93 34.94 40.33 36.81 40.76 38.81L40.77 38.87C41.19 40.79 41.62 42.83 42.17 44.39C42.44 45.17 42.78 45.94 43.22 46.54C43.65 47.12 44.37 47.78 45.42 47.78C46.47 47.78 47.19 47.12 47.61 46.52C48.05 45.92 48.37 45.15 48.64 44.37C49.14 42.87 49.54 40.92 49.93 39.06L49.93 39.06L49.98 38.8C50.39 36.8 50.79 34.94 51.28 33.57C51.38 33.27 51.49 33.02 51.59 32.81C52.34 34.52 52.75 36.4 52.75 38.39C52.75 46.1 46.47 52.36 38.72 52.36C30.97 52.36 24.69 46.1 24.69 38.39C24.69 36.36 25.12 34.43 25.9 32.69ZM38.72 21.62C29.42 21.62 21.88 29.13 21.88 38.39C21.88 47.64 29.42 55.15 38.72 55.15C48.02 55.15 55.56 47.64 55.56 38.39C55.56 29.13 48.02 21.62 38.72 21.62ZM39.04 31.99C39.04 31.99 39.04 31.99 39.03 32C39.04 31.99 39.04 31.99 39.04 31.99ZM38.65 31.99C38.65 31.99 38.64 31.99 38.64 31.99C38.64 31.99 38.65 31.99 38.65 31.99ZM45.2 45.05C45.2 45.05 45.21 45.04 45.21 45.04C45.21 45.04 45.2 45.05 45.2 45.05ZM45.61 45.04C45.62 45.04 45.62 45.04 45.62 45.04C45.62 45.04 45.62 45.04 45.61 45.04ZM31.92 45.07C31.92 45.07 31.93 45.07 31.94 45.06C31.93 45.07 31.92 45.07 31.92 45.07ZM32.49 45.06C32.5 45.07 32.51 45.07 32.51 45.07C32.51 45.07 32.5 45.07 32.49 45.06Z" fill="#000000" fill-opacity="1.000000" fill-rule="evenodd"/>
		<path id="Vector" d="M64.86 48.31L60.77 34.41L64.35 34.41L66.77 44.41L69.59 34.41L73.59 34.41L76.41 44.41L78.86 34.41L82.43 34.41L78.32 48.31L74.57 48.31L71.59 37.91L68.6 48.31L64.86 48.31Z" fill="#000000" fill-opacity="1.000000" fill-rule="nonzero"/>
		<path id="Vector" d="M87.68 48.65C86.48 48.65 85.49 48.46 84.72 48.09C83.95 47.69 83.38 47.18 83.01 46.54C82.63 45.91 82.44 45.21 82.44 44.44C82.44 43.15 82.95 42.11 83.96 41.3C84.98 40.5 86.5 40.1 88.53 40.1L92.07 40.1L92.07 39.76C92.07 38.81 91.8 38.11 91.26 37.66C90.71 37.21 90.04 36.99 89.23 36.99C88.5 36.99 87.86 37.16 87.31 37.52C86.77 37.85 86.43 38.36 86.3 39.03L82.78 39.03C82.87 38.02 83.21 37.14 83.79 36.4C84.4 35.65 85.16 35.08 86.1 34.69C87.04 34.28 88.09 34.07 89.26 34.07C91.25 34.07 92.82 34.56 93.96 35.56C95.11 36.55 95.68 37.95 95.68 39.76L95.68 48.31L92.61 48.31L92.27 46.07C91.86 46.82 91.28 47.43 90.53 47.92C89.79 48.4 88.84 48.65 87.68 48.65ZM88.5 45.84C89.53 45.84 90.33 45.51 90.89 44.83C91.47 44.16 91.84 43.33 91.99 42.34L88.92 42.34C87.96 42.34 87.28 42.52 86.86 42.87C86.45 43.21 86.24 43.63 86.24 44.13C86.24 44.68 86.45 45.1 86.86 45.4C87.28 45.69 87.82 45.84 88.5 45.84Z" fill="#000000" fill-opacity="1.000000" fill-rule="nonzero"/>
		<path id="Vector" d="M101.35 48.31L96.23 34.41L100 34.41L103.55 44.92L107.1 34.41L110.87 34.41L105.72 48.31L101.35 48.31Z" fill="#000000" fill-opacity="1.000000" fill-rule="nonzero"/>
		<path id="Vector" d="M118.12 48.65C116.71 48.65 115.46 48.35 114.37 47.75C113.29 47.15 112.43 46.31 111.81 45.23C111.19 44.14 110.88 42.89 110.88 41.47C110.88 40.03 111.18 38.75 111.78 37.63C112.4 36.51 113.25 35.64 114.32 35.02C115.41 34.39 116.68 34.07 118.15 34.07C119.52 34.07 120.73 34.37 121.78 34.97C122.83 35.56 123.65 36.39 124.23 37.43C124.83 38.46 125.13 39.61 125.13 40.88C125.13 41.09 125.12 41.3 125.11 41.53C125.11 41.75 125.1 41.98 125.08 42.23L114.46 42.23C114.53 43.31 114.91 44.16 115.59 44.78C116.28 45.4 117.12 45.7 118.09 45.7C118.82 45.7 119.44 45.54 119.92 45.23C120.43 44.89 120.81 44.46 121.05 43.94L124.71 43.94C124.45 44.82 124.01 45.62 123.39 46.35C122.79 47.06 122.04 47.62 121.13 48.03C120.25 48.44 119.25 48.65 118.12 48.65ZM118.15 36.99C117.27 36.99 116.49 37.24 115.81 37.74C115.14 38.23 114.7 38.98 114.52 39.98L121.47 39.98C121.42 39.07 121.08 38.34 120.46 37.8C119.84 37.26 119.07 36.99 118.15 36.99Z" fill="#000000" fill-opacity="1.000000" fill-rule="nonzero"/>
		<path id="Vector" d="M127.04 48.31L127.04 28.13L130.64 28.13L130.64 48.31L127.04 48.31Z" fill="#000000" fill-opacity="1.000000" fill-rule="nonzero"/>
		<path id="Vector" d="M139.99 48.65C138.58 48.65 137.33 48.35 136.24 47.75C135.15 47.15 134.3 46.31 133.68 45.23C133.06 44.14 132.75 42.89 132.75 41.47C132.75 40.03 133.05 38.75 133.65 37.63C134.27 36.51 135.12 35.64 136.19 35.02C137.28 34.39 138.55 34.07 140.02 34.07C141.39 34.07 142.6 34.37 143.65 34.97C144.7 35.56 145.52 36.39 146.1 37.43C146.7 38.46 147 39.61 147 40.88C147 41.09 146.99 41.3 146.97 41.53C146.97 41.75 146.96 41.98 146.94 42.23L136.33 42.23C136.4 43.31 136.78 44.16 137.45 44.78C138.15 45.4 138.98 45.7 139.96 45.7C140.69 45.7 141.3 45.54 141.79 45.23C142.3 44.89 142.67 44.46 142.92 43.94L146.58 43.94C146.32 44.82 145.87 45.62 145.25 46.35C144.65 47.06 143.9 47.62 143 48.03C142.12 48.44 141.11 48.65 139.99 48.65ZM140.02 36.99C139.13 36.99 138.35 37.24 137.68 37.74C137 38.23 136.57 38.98 136.38 39.98L143.34 39.98C143.28 39.07 142.95 38.34 142.33 37.8C141.71 37.26 140.94 36.99 140.02 36.99Z" fill="#000000" fill-opacity="1.000000" fill-rule="nonzero"/>
		<path id="Vector" d="M154.68 48.65C153.44 48.65 152.35 48.45 151.41 48.06C150.47 47.65 149.72 47.09 149.16 46.38C148.6 45.67 148.26 44.84 148.14 43.91L151.78 43.91C151.89 44.45 152.19 44.92 152.68 45.31C153.19 45.68 153.83 45.87 154.62 45.87C155.41 45.87 155.98 45.71 156.34 45.4C156.72 45.08 156.9 44.71 156.9 44.3C156.9 43.7 156.64 43.3 156.12 43.1C155.59 42.87 154.86 42.66 153.92 42.45C153.32 42.32 152.71 42.16 152.09 41.98C151.47 41.79 150.9 41.55 150.37 41.27C149.86 40.98 149.45 40.6 149.13 40.15C148.81 39.69 148.65 39.12 148.65 38.44C148.65 37.21 149.14 36.17 150.12 35.33C151.11 34.49 152.5 34.07 154.28 34.07C155.94 34.07 157.25 34.45 158.23 35.22C159.22 35.99 159.81 37.04 160 38.39L156.59 38.39C156.39 37.36 155.61 36.85 154.26 36.85C153.58 36.85 153.06 36.98 152.68 37.24C152.32 37.5 152.14 37.83 152.14 38.22C152.14 38.63 152.42 38.96 152.96 39.2C153.51 39.44 154.23 39.67 155.13 39.87C156.11 40.1 157 40.35 157.81 40.63C158.63 40.89 159.29 41.29 159.78 41.83C160.27 42.36 160.51 43.12 160.51 44.11C160.53 44.97 160.3 45.74 159.83 46.43C159.36 47.12 158.69 47.67 157.81 48.06C156.92 48.45 155.88 48.65 154.68 48.65Z" fill="#000000" fill-opacity="1.000000" fill-rule="nonzero"/>
		<path id="Vector" d="M168.35 48.65C167.11 48.65 166.02 48.45 165.08 48.06C164.14 47.65 163.39 47.09 162.83 46.38C162.27 45.67 161.93 44.84 161.82 43.91L165.45 43.91C165.56 44.45 165.86 44.92 166.35 45.31C166.86 45.68 167.5 45.87 168.29 45.87C169.08 45.87 169.65 45.71 170.01 45.4C170.39 45.08 170.57 44.71 170.57 44.3C170.57 43.7 170.31 43.3 169.79 43.1C169.26 42.87 168.53 42.66 167.59 42.45C166.99 42.32 166.38 42.16 165.76 41.98C165.14 41.79 164.57 41.55 164.04 41.27C163.53 40.98 163.12 40.6 162.8 40.15C162.48 39.69 162.32 39.12 162.32 38.44C162.32 37.21 162.81 36.17 163.79 35.33C164.78 34.49 166.17 34.07 167.96 34.07C169.61 34.07 170.92 34.45 171.9 35.22C172.89 35.99 173.48 37.04 173.67 38.39L170.26 38.39C170.06 37.36 169.28 36.85 167.93 36.85C167.25 36.85 166.73 36.98 166.35 37.24C165.99 37.5 165.81 37.83 165.81 38.22C165.81 38.63 166.09 38.96 166.63 39.2C167.18 39.44 167.9 39.67 168.8 39.87C169.78 40.1 170.67 40.35 171.48 40.63C172.3 40.89 172.96 41.29 173.45 41.83C173.94 42.36 174.18 43.12 174.18 44.11C174.2 44.97 173.97 45.74 173.5 46.43C173.03 47.12 172.36 47.67 171.48 48.06C170.59 48.45 169.55 48.65 168.35 48.65Z" fill="#000000" fill-opacity="1.000000" fill-rule="nonzero"/>
	</g>
</svg>
