<svg width="196.000000" height="76.000000" viewBox="0 0 196 76" fill="none" xmlns="http://www.w3.org/2000/svg" xmlns:xlink="http://www.w3.org/1999/xlink">
	<desc>
			Created with Pixso.
	</desc>
	<defs>
		<clipPath id="clip2_59">
			<rect id="IMAGE" rx="-0.500000" width="195.000000" height="75.000000" transform="translate(0.500000 0.500000)" fill="white" fill-opacity="0"/>
		</clipPath>
	</defs>
	<g clip-path="url(#clip2_59)">
		<path id="Vector" d="M37.87 16.84L16.68 42.31L35.75 42.31L33.63 59.29L54.83 33.82L35.75 33.82L37.87 16.84Z" fill="#000000" fill-opacity="1.000000" fill-rule="nonzero"/>
		<path id="Vector" d="M84.85 34.59L84.85 42.45L73.53 42.45L73.53 53.21L64.63 53.21L64.63 21.31L87.22 21.31L87.22 29.16L73.53 29.16L73.53 34.59L84.85 34.59Z" fill="#000000" fill-opacity="1.000000" fill-rule="nonzero"/>
		<path id="Vector" d="M99.63 21.31L99.63 53.21L91.45 53.21L91.45 21.31L99.63 21.31Z" fill="#000000" fill-opacity="1.000000" fill-rule="nonzero"/>
		<path id="Vector" d="M113.12 28.21C114.39 28.21 115.63 28.5 116.83 29.07C118.07 29.61 119.08 30.31 119.88 31.16L119.88 28.93L128.06 28.93L128.06 53.21L119.88 53.21L119.88 49.17C119.28 50.5 118.36 51.63 117.12 52.55C115.88 53.47 114.39 53.93 112.65 53.93C110.84 53.93 109.14 53.47 107.56 52.55C105.97 51.63 104.67 50.21 103.66 48.31C102.68 46.37 102.19 43.94 102.19 41.02C102.19 38.29 102.68 35.97 103.66 34.07C104.67 32.16 106.01 30.72 107.65 29.74C109.34 28.72 111.16 28.21 113.12 28.21ZM114.84 36.21C113.66 36.21 112.68 36.69 111.89 37.64C111.13 38.59 110.75 39.72 110.75 41.02C110.75 42.32 111.14 43.42 111.94 44.31C112.73 45.2 113.77 45.64 115.07 45.64C115.77 45.64 116.48 45.47 117.21 45.12C117.94 44.74 118.56 44.18 119.07 43.45C119.61 42.69 119.88 41.72 119.88 40.55L119.88 38.21C119.18 37.64 118.39 37.16 117.5 36.78C116.64 36.4 115.76 36.21 114.84 36.21Z" fill="#000000" fill-opacity="1.000000" fill-rule="nonzero"/>
		<path id="Vector" d="M140.75 28.21C142.33 28.21 143.79 28.45 145.12 28.93C146.48 29.37 147.58 29.99 148.4 30.78L148.4 37.21C147.58 36.7 146.64 36.23 145.6 35.78C144.55 35.31 143.42 35.07 142.22 35.07C141.46 35.07 140.78 35.23 140.17 35.55C139.6 35.83 139.32 36.29 139.32 36.93C139.32 37.37 139.49 37.7 139.84 37.93C140.19 38.15 140.87 38.39 141.89 38.64L143.36 39.02C147.58 40.1 149.69 42.37 149.69 45.83C149.69 47.42 149.21 48.83 148.26 50.07C147.34 51.28 146.12 52.23 144.6 52.93C143.11 53.59 141.49 53.93 139.75 53.93C137.94 53.93 136.26 53.67 134.71 53.17C133.15 52.63 131.82 51.98 130.71 51.21L130.71 44.83C131.85 45.53 133.14 46.12 134.56 46.59C136.02 47.07 137.32 47.31 138.46 47.31C139.38 47.31 140.05 47.2 140.46 46.97C140.9 46.75 141.13 46.36 141.13 45.78C141.13 45.34 140.87 45.01 140.37 44.78C139.86 44.53 139.13 44.24 138.18 43.93L135.75 43.16C133.98 42.63 132.68 41.78 131.85 40.64C131.03 39.47 130.62 38.04 130.62 36.35C130.62 34.67 131.06 33.23 131.95 32.02C132.84 30.81 134.04 29.88 135.56 29.21C137.12 28.54 138.84 28.21 140.75 28.21Z" fill="#000000" fill-opacity="1.000000" fill-rule="nonzero"/>
		<path id="Vector" d="M166.56 28.21C169.03 28.21 171.05 29.05 172.6 30.74C174.19 32.42 174.98 34.91 174.98 38.21L174.98 53.21L166.8 53.21L166.75 39.5C166.75 38.29 166.42 37.45 165.75 36.97C165.09 36.47 164.34 36.21 163.52 36.21C162.63 36.21 161.88 36.45 161.28 36.93C160.68 37.37 160.16 37.91 159.71 38.55L159.71 53.21L151.53 53.21L151.53 21.31L159.71 21.31L159.71 32.07C160.47 31.02 161.39 30.12 162.47 29.35C163.58 28.59 164.94 28.21 166.56 28.21Z" fill="#000000" fill-opacity="1.000000" fill-rule="nonzero"/>
		<path id="Vector" d="M174.57 21.49L174.57 22.51L173.35 22.51L173.35 25.59L172.19 25.59L172.19 22.51L170.97 22.51L170.97 21.49L174.57 21.49Z" fill="#000000" fill-opacity="1.000000" fill-rule="nonzero"/>
		<path id="Vector" d="M179.31 21.43L179.31 25.61L178.16 25.61L178.16 23.58L177.31 24.53L176.96 24.53L176.12 23.58L176.12 25.61L174.96 25.61L174.96 21.43L175.37 21.43L177.14 23.21L178.91 21.43L179.31 21.43Z" fill="#000000" fill-opacity="1.000000" fill-rule="nonzero"/>
	</g>
</svg>
