<svg width="196.000000" height="88.000000" viewBox="0 0 196 88" fill="none" xmlns="http://www.w3.org/2000/svg" xmlns:xlink="http://www.w3.org/1999/xlink">
	<desc>
			Created with Pixso.
	</desc>
	<defs>
		<clipPath id="clip2_68">
			<rect id="IMAGE" rx="-0.500000" width="195.000000" height="87.000000" transform="translate(0.500000 0.500000)" fill="white" fill-opacity="0"/>
		</clipPath>
	</defs>
	<g clip-path="url(#clip2_68)">
		<path id="Vector" d="M107.2 54.28L107.2 30.52L111.52 30.52L111.52 54.28L107.2 54.28Z" fill="#000000" fill-opacity="1.000000" fill-rule="nonzero"/>
		<path id="Vector" d="M70.58 31.18L79.72 54.28L83.29 54.28L92.54 31.18L87.75 31.18L81.56 47.4L75.43 31.18L70.58 31.18Z" fill="#000000" fill-opacity="1.000000" fill-rule="nonzero"/>
		<path id="Vector" d="M93.18 53.52C94.48 54.25 95.93 54.61 97.54 54.61C99.15 54.61 100.59 54.25 101.87 53.52C103.17 52.78 104.19 51.78 104.94 50.53C105.69 49.26 106.06 47.85 106.06 46.3C106.06 44.74 105.69 43.35 104.94 42.12C104.19 40.87 103.17 39.89 101.87 39.17C100.59 38.42 99.14 38.05 97.51 38.05C95.92 38.05 94.48 38.42 93.18 39.17C91.88 39.89 90.86 40.87 90.11 42.12C89.36 43.35 88.99 44.74 88.99 46.3C88.99 47.85 89.36 49.26 90.11 50.53C90.88 51.78 91.91 52.78 93.18 53.52ZM99.66 50.07C99.04 50.43 98.32 50.6 97.51 50.6C96.72 50.6 96.01 50.43 95.4 50.07C94.78 49.7 94.29 49.2 93.94 48.56C93.59 47.91 93.41 47.16 93.41 46.33C93.41 45.5 93.59 44.76 93.94 44.13C94.29 43.49 94.78 43 95.4 42.65C96.01 42.28 96.72 42.09 97.51 42.09C98.32 42.09 99.04 42.28 99.66 42.65C100.27 43 100.76 43.49 101.11 44.13C101.46 44.76 101.64 45.5 101.64 46.33C101.64 47.16 101.46 47.91 101.11 48.56C100.78 49.2 100.29 49.7 99.66 50.07Z" fill="#000000" fill-opacity="1.000000" fill-rule="evenodd"/>
		<path id="Vector" d="M116.74 53.72C117.84 54.31 119.1 54.61 120.51 54.61C121.92 54.61 123.16 54.32 124.24 53.76C125.34 53.16 126.19 52.34 126.78 51.29C127.4 50.24 127.7 49.01 127.7 47.61L127.7 38.41L123.38 38.41L123.38 47.51C123.38 48.5 123.13 49.26 122.62 49.81C122.11 50.36 121.41 50.63 120.51 50.63C119.91 50.63 119.39 50.51 118.95 50.27C118.51 50.03 118.18 49.68 117.96 49.22C117.74 48.74 117.63 48.17 117.63 47.51L117.63 38.41L113.27 38.41L113.27 47.61C113.27 48.99 113.58 50.21 114.2 51.26C114.82 52.31 115.66 53.13 116.74 53.72Z" fill="#000000" fill-opacity="1.000000" fill-rule="nonzero"/>
		<path id="Vector" d="M129.5 54.28L129.5 38.41L133.82 38.41L133.82 39.79C134.21 39.41 134.65 39.09 135.14 38.84C136.07 38.33 137.12 38.08 138.28 38.08C139.38 38.08 140.39 38.33 141.29 38.84C142.04 39.24 142.67 39.79 143.16 40.49C143.7 39.81 144.35 39.27 145.12 38.87C146.09 38.34 147.17 38.08 148.35 38.08C149.54 38.08 150.61 38.33 151.56 38.84C152.5 39.32 153.25 40.02 153.8 40.94C154.35 41.86 154.63 42.96 154.63 44.23L154.63 54.28L150.3 54.28L150.3 44.92C150.3 44 150 43.28 149.41 42.78C148.84 42.25 148.12 41.99 147.26 41.99C146.71 41.99 146.2 42.11 145.71 42.35C145.25 42.57 144.89 42.9 144.62 43.34C144.36 43.78 144.23 44.3 144.23 44.92L144.23 54.28L139.9 54.28L139.9 44.92C139.9 44 139.6 43.28 139.01 42.78C138.44 42.25 137.72 41.99 136.86 41.99C136.29 41.99 135.77 42.11 135.31 42.35C134.85 42.57 134.48 42.9 134.22 43.34C133.96 43.78 133.82 44.3 133.82 44.92L133.82 54.28L129.5 54.28Z" fill="#000000" fill-opacity="1.000000" fill-rule="nonzero"/>
		<path id="Vector" d="M159.65 53.56C160.95 54.26 162.44 54.61 164.11 54.61C165.41 54.61 166.61 54.38 167.71 53.92C168.83 53.46 169.78 52.78 170.55 51.88L168.01 49.35C167.52 49.9 166.95 50.32 166.29 50.6C165.63 50.86 164.89 50.99 164.08 50.99C163.18 50.99 162.38 50.81 161.7 50.44C161.02 50.04 160.49 49.49 160.12 48.79C159.98 48.5 159.86 48.2 159.78 47.87L171.44 47.84C171.53 47.47 171.59 47.14 171.61 46.85C171.65 46.55 171.67 46.25 171.67 45.97C171.67 44.46 171.33 43.11 170.65 41.93C169.99 40.72 169.07 39.78 167.88 39.1C166.71 38.4 165.36 38.05 163.82 38.05C162.25 38.05 160.83 38.42 159.56 39.17C158.28 39.89 157.27 40.87 156.52 42.12C155.79 43.35 155.43 44.75 155.43 46.33C155.43 47.93 155.8 49.35 156.55 50.6C157.32 51.85 158.36 52.83 159.65 53.56ZM159.78 44.65C159.86 44.36 159.96 44.09 160.08 43.83C160.44 43.13 160.93 42.59 161.57 42.22C162.21 41.83 162.96 41.63 163.82 41.63C164.63 41.63 165.31 41.81 165.86 42.16C166.43 42.48 166.86 42.97 167.15 43.6C167.3 43.91 167.42 44.25 167.5 44.63L159.78 44.65Z" fill="#000000" fill-opacity="1.000000" fill-rule="evenodd"/>
		<path id="Vector" d="M43.99 63.82C55.09 63.82 64.08 54.87 64.08 43.83C64.08 32.79 55.09 23.84 43.99 23.84C32.89 23.84 23.9 32.79 23.9 43.83C23.9 54.87 32.89 63.82 43.99 63.82ZM52.31 31.59C52.55 31.79 52.69 32.09 52.69 32.4L52.69 36.42L52.69 36.68L52.69 36.71L52.69 50.16C52.69 52.49 50.78 54.39 48.44 54.39C46.09 54.39 44.19 52.49 44.19 50.16C44.19 47.82 46.09 45.93 48.44 45.93C49.21 45.93 49.94 46.14 50.56 46.5L50.56 37.93L39.94 39.69L39.94 52.27C39.94 54.61 38.04 56.5 35.69 56.5C33.34 56.5 31.44 54.61 31.44 52.27C31.44 49.94 33.34 48.04 35.69 48.04C36.46 48.04 37.19 48.25 37.81 48.61L37.81 38.79L37.81 38.53L37.81 38.5L37.81 34.51C37.81 34 38.19 33.56 38.7 33.47L51.45 31.36C51.76 31.31 52.07 31.39 52.31 31.59Z" fill="#000000" fill-opacity="1.000000" fill-rule="evenodd"/>
	</g>
</svg>
