<svg width="196.000000" height="67.000000" viewBox="0 0 196 67" fill="none" xmlns="http://www.w3.org/2000/svg" xmlns:xlink="http://www.w3.org/1999/xlink">
	<desc>
			Created with Pixso.
	</desc>
	<defs>
		<clipPath id="clip2_50">
			<rect id="IMAGE" rx="-0.500000" width="195.000000" height="66.000000" transform="translate(0.500000 0.500000)" fill="white" fill-opacity="0"/>
		</clipPath>
	</defs>
	<g clip-path="url(#clip2_50)">
		<path id="Vector" d="M59.63 45.79L61.5 45.32L61.5 25.26L59.63 24.79L59.63 24.32L68.06 24.32C71.23 24.32 73.55 24.83 75.03 25.86C76.53 26.86 77.28 28.18 77.28 29.81C77.28 30.94 76.96 31.84 76.31 32.53C75.66 33.22 74.84 33.74 73.84 34.07C72.78 34.45 71.63 34.64 70.4 34.67L70.4 34.82C71.93 34.89 73.25 35.12 74.37 35.51C75.52 35.89 76.47 36.47 77.22 37.27C77.99 38.06 78.37 39.08 78.37 40.31C78.37 42.17 77.61 43.63 76.09 44.7C74.57 45.74 72.1 46.26 68.69 46.26L59.63 46.26L59.63 45.79ZM68.06 34.35C68.75 34.35 69.38 34.16 69.97 33.79C70.57 33.39 71.05 32.85 71.4 32.16C71.78 31.45 71.97 30.66 71.97 29.81C71.97 28.89 71.78 28.07 71.4 27.36C71.05 26.65 70.57 26.1 69.97 25.7C69.38 25.3 68.75 25.11 68.06 25.11L66.66 25.11L66.66 34.35L68.06 34.35ZM68.69 45.48C69.98 45.48 71.03 45.02 71.84 44.1C72.65 43.18 73.06 41.92 73.06 40.31C73.06 38.7 72.65 37.43 71.84 36.52C71.03 35.6 69.98 35.14 68.69 35.14L66.66 35.14L66.66 45.48L68.69 45.48Z" fill="#000000" fill-opacity="1.000000" fill-rule="nonzero"/>
		<path id="Vector" d="M78.99 45.79L80.86 45.32L80.86 25.26L78.99 24.79L78.99 24.32L83.05 24.32C84.92 24.32 85.86 25.26 85.86 27.14L85.86 45.32L87.73 45.79L87.73 46.26L78.99 46.26L78.99 45.79Z" fill="#000000" fill-opacity="1.000000" fill-rule="nonzero"/>
		<path id="Vector" d="M96.32 46.73C93.74 46.73 91.71 46 90.23 44.54C88.77 43.06 88.04 41.02 88.04 38.43C88.04 35.84 88.77 33.81 90.23 32.35C91.71 30.86 93.74 30.12 96.32 30.12C98.9 30.12 100.92 30.86 102.38 32.35C103.86 33.81 104.6 35.84 104.6 38.43C104.6 41.02 103.86 43.06 102.38 44.54C100.92 46 98.9 46.73 96.32 46.73ZM96.32 46.11C97.15 46.11 97.85 45.52 98.41 44.35C99 43.18 99.29 41.21 99.29 38.43C99.29 35.65 99 33.67 98.41 32.5C97.85 31.33 97.15 30.75 96.32 30.75C95.49 30.75 94.78 31.33 94.2 32.5C93.63 33.67 93.35 35.65 93.35 38.43C93.35 41.21 93.63 43.18 94.2 44.35C94.78 45.52 95.49 46.11 96.32 46.11Z" fill="#000000" fill-opacity="1.000000" fill-rule="nonzero"/>
		<path id="Vector" d="M112.89 46.73C111.6 46.73 110.44 46.45 109.42 45.89C108.92 45.62 108.52 45.32 108.2 45.01C107.87 45.47 107.51 45.83 107.11 46.08C106.92 46.2 106.72 46.32 106.49 46.42L105.71 46.42L105.71 41.09L106.95 41.09C107.23 41.97 107.62 42.78 108.14 43.54C109.25 45.15 110.62 45.95 112.27 45.95C113.14 45.95 113.8 45.74 114.23 45.32C114.69 44.88 114.92 44.26 114.92 43.44C114.92 42.75 114.61 42.18 113.98 41.72C113.38 41.24 112.42 40.65 111.11 39.96C109.99 39.4 109.07 38.9 108.36 38.46C107.67 38 107.08 37.43 106.58 36.77C106.1 36.08 105.86 35.27 105.86 34.35C105.86 33.1 106.39 32.09 107.45 31.31C108.54 30.52 110.19 30.12 112.42 30.12C113.53 30.12 114.55 30.41 115.48 31C115.94 31.27 116.34 31.55 116.67 31.84C116.94 31.47 117.31 31.11 117.76 30.78C118.12 30.57 118.33 30.46 118.39 30.43L119.17 30.43L119.17 35.76L117.92 35.76C117.61 34.86 117.22 34.06 116.76 33.35C115.72 31.72 114.48 30.9 113.05 30.9C112.48 30.9 112.01 31.11 111.61 31.53C111.21 31.95 111.02 32.47 111.02 33.1C111.02 33.89 111.35 34.56 112.02 35.1C112.68 35.63 113.69 36.23 115.05 36.92C116.15 37.49 117.03 37.99 117.67 38.43C118.34 38.85 118.9 39.37 119.36 39.99C119.84 40.62 120.08 41.35 120.08 42.19C120.08 45.22 117.68 46.73 112.89 46.73Z" fill="#000000" fill-opacity="1.000000" fill-rule="nonzero"/>
		<path id="Vector" d="M128.2 46.73C126.91 46.73 125.75 46.45 124.73 45.89C124.23 45.62 123.83 45.32 123.51 45.01C123.18 45.47 122.82 45.83 122.42 46.08C122.23 46.2 122.03 46.32 121.8 46.42L121.02 46.42L121.02 41.09L122.26 41.09C122.54 41.97 122.93 42.78 123.45 43.54C124.56 45.15 125.93 45.95 127.58 45.95C128.45 45.95 129.11 45.74 129.54 45.32C130 44.88 130.23 44.26 130.23 43.44C130.23 42.75 129.92 42.18 129.29 41.72C128.69 41.24 127.73 40.65 126.42 39.96C125.3 39.4 124.38 38.9 123.67 38.46C122.98 38 122.39 37.43 121.89 36.77C121.41 36.08 121.17 35.27 121.17 34.35C121.17 33.1 121.7 32.09 122.76 31.31C123.85 30.52 125.5 30.12 127.73 30.12C128.84 30.12 129.86 30.41 130.79 31C131.25 31.27 131.65 31.55 131.98 31.84C132.25 31.47 132.62 31.11 133.07 30.78C133.43 30.57 133.64 30.46 133.7 30.43L134.48 30.43L134.48 35.76L133.23 35.76C132.92 34.86 132.53 34.06 132.07 33.35C131.03 31.72 129.79 30.9 128.36 30.9C127.79 30.9 127.32 31.11 126.92 31.53C126.52 31.95 126.33 32.47 126.33 33.1C126.33 33.89 126.66 34.56 127.33 35.1C127.99 35.63 129 36.23 130.36 36.92C131.46 37.49 132.34 37.99 132.98 38.43C133.65 38.85 134.21 39.37 134.67 39.99C135.15 40.62 135.39 41.35 135.39 42.19C135.39 45.22 132.99 46.73 128.2 46.73Z" fill="#000000" fill-opacity="1.000000" fill-rule="nonzero"/>
		<path id="Vector" d="M144.45 46.73C141.87 46.73 139.83 46 138.36 44.54C136.9 43.06 136.17 41.02 136.17 38.43C136.17 35.84 136.9 33.81 138.36 32.35C139.83 30.86 141.87 30.12 144.45 30.12C147.03 30.12 149.05 30.86 150.51 32.35C151.99 33.81 152.73 35.84 152.73 38.43C152.73 41.02 151.99 43.06 150.51 44.54C149.05 46 147.03 46.73 144.45 46.73ZM144.45 46.11C145.28 46.11 145.98 45.52 146.54 44.35C147.12 43.18 147.42 41.21 147.42 38.43C147.42 35.65 147.12 33.67 146.54 32.5C145.98 31.33 145.28 30.75 144.45 30.75C143.61 30.75 142.91 31.33 142.32 32.5C141.76 33.67 141.48 35.65 141.48 38.43C141.48 41.21 141.76 43.18 142.32 44.35C142.91 45.52 143.61 46.11 144.45 46.11Z" fill="#000000" fill-opacity="1.000000" fill-rule="nonzero"/>
		<path id="Vector" d="M153.67 45.79L155.55 45.32L155.55 31.53L153.67 31.06L153.67 30.59L156.49 30.59C157.72 30.59 158.68 30.99 159.39 31.78C159.66 32.1 159.89 32.48 160.08 32.94C160.39 32.36 160.73 31.89 161.08 31.53C162.02 30.59 163.09 30.12 164.3 30.12C165.51 30.12 166.57 30.39 167.48 30.94C168.4 31.46 169.11 32.18 169.61 33.1C169.92 32.49 170.25 32 170.61 31.63C171.57 30.62 172.64 30.12 173.83 30.12C174.93 30.12 175.92 30.35 176.79 30.81C177.69 31.27 178.38 31.9 178.86 32.69C179.36 33.49 179.61 34.35 179.61 35.29L179.61 45.32L181.48 45.79L181.48 46.26L177.42 46.26C175.54 46.26 174.61 45.32 174.61 43.44L174.61 35.29C174.61 33.93 174.4 32.92 173.98 32.25C173.57 31.56 173.1 31.22 172.58 31.22C171.97 31.22 171.36 31.64 170.73 32.47C170.48 32.87 170.26 33.29 170.08 33.73L170.08 45.32L171.95 45.79L171.95 46.26L163.2 46.26L163.2 45.79L165.08 45.32L165.08 35.29C165.08 33.93 164.87 32.92 164.45 32.25C164.04 31.56 163.57 31.22 163.05 31.22C162.44 31.22 161.83 31.64 161.2 32.47C160.95 32.87 160.74 33.29 160.55 33.73L160.55 45.32L162.42 45.79L162.42 46.26L153.67 46.26L153.67 45.79Z" fill="#000000" fill-opacity="1.000000" fill-rule="nonzero"/>
		<path id="Vector" d="M34.2 52.25C33.99 52.29 33.79 52.3 33.57 52.29C27.03 51.79 20.84 48.16 17.31 42.03C13.78 35.89 13.74 28.7 16.59 22.76C17 21.9 17.89 21.38 18.84 21.46C21.28 21.64 23.67 22.26 25.89 23.28C27.57 20 30.05 17.21 33.07 15.15C33.86 14.62 34.89 14.62 35.68 15.15C38.67 17.18 41.12 19.93 42.79 23.15C44.93 22.21 47.22 21.63 49.55 21.46C50.5 21.38 51.39 21.9 51.81 22.76C54.65 28.7 54.62 35.89 51.09 42.03C47.56 48.16 41.36 51.79 34.82 52.29C34.61 52.3 34.4 52.29 34.2 52.25ZM38.99 48.53C42.91 47.19 46.38 44.48 48.62 40.6C51.59 35.43 51.68 29.39 49.39 24.34C47.51 24.53 45.67 25.01 43.94 25.77C44.79 28.1 45.25 30.61 45.25 33.22C45.25 39.19 42.86 44.59 38.99 48.53ZM40.27 24.48C38.87 21.79 36.84 19.47 34.38 17.73C31.86 19.51 29.8 21.89 28.4 24.66C30.63 26.09 32.61 27.97 34.2 30.27C35.84 27.88 37.93 25.93 40.27 24.48ZM35.81 33.04C37.25 30.59 39.18 28.61 41.4 27.15C42.05 29.06 42.39 31.1 42.39 33.22C42.39 38.13 40.54 42.6 37.49 45.96C38.31 41.71 37.81 37.18 35.81 33.04ZM32.58 33.04C31.21 30.7 29.39 28.78 27.29 27.35C26.69 29.2 26.36 31.17 26.36 33.22C26.36 37.87 28.03 42.14 30.81 45.44C30.12 41.34 30.66 37.01 32.58 33.04ZM34.2 47.36C35.27 43.94 35.31 40.22 34.2 36.68C33.08 40.22 33.13 43.94 34.2 47.36ZM19.78 40.6C22.11 44.65 25.8 47.44 29.94 48.71C25.97 44.75 23.51 39.28 23.51 33.22C23.51 30.66 23.95 28.2 24.76 25.91C22.94 25.07 20.99 24.54 19 24.34C16.71 29.39 16.81 35.43 19.78 40.6Z" fill="#000000" fill-opacity="1.000000" fill-rule="evenodd"/>
	</g>
</svg>
