<svg width="196.000000" height="75.000000" viewBox="0 0 196 75" fill="none" xmlns="http://www.w3.org/2000/svg" xmlns:xlink="http://www.w3.org/1999/xlink">
	<desc>
			Created with Pixso.
	</desc>
	<defs>
		<clipPath id="clip2_37">
			<rect id="IMAGE" rx="-0.500000" width="195.000000" height="74.000000" transform="translate(0.500000 0.500000)" fill="white" fill-opacity="0"/>
		</clipPath>
	</defs>
	<g clip-path="url(#clip2_37)">
		<path id="Vector" d="M21.46 42.92L32.34 38.11L38.6 41.72L39.87 53.56L32.15 53.49L33.29 45.26L31.96 44.5L25.44 49.57L21.46 42.92Z" fill="#000000" fill-opacity="1.000000" fill-rule="nonzero"/>
		<path id="Vector" d="M39.3 41.21L48.92 48.24L52.71 41.46L44.99 38.36L44.99 36.84L52.71 33.67L48.92 26.96L39.3 33.99L39.3 41.21Z" fill="#000000" fill-opacity="1.000000" fill-rule="nonzero"/>
		<path id="Vector" d="M38.6 33.42L39.87 21.58L32.15 21.71L33.29 29.94L31.96 30.7L25.38 25.63L21.46 32.22L32.34 37.03L38.6 33.42Z" fill="#000000" fill-opacity="1.000000" fill-rule="nonzero"/>
		<path id="Vector" d="M78.46 36.15L78.46 47.24L82.62 47.24L82.62 33.1L76.57 33.1L76.57 36.15L78.46 36.15Z" fill="#000000" fill-opacity="1.000000" fill-rule="nonzero"/>
		<path id="Vector" d="M78.33 31.12C78.71 31.51 79.29 31.71 80.07 31.71C80.85 31.71 81.42 31.51 81.79 31.12C82.17 30.71 82.36 30.19 82.36 29.57C82.36 28.93 82.17 28.42 81.79 28.02C81.42 27.61 80.85 27.4 80.07 27.4C79.29 27.4 78.71 27.61 78.33 28.02C77.97 28.42 77.79 28.93 77.79 29.57C77.79 30.19 77.97 30.71 78.33 31.12Z" fill="#000000" fill-opacity="1.000000" fill-rule="nonzero"/>
		<path id="Vector" d="M64 46.93C65.18 47.47 66.62 47.73 68.34 47.73C69.95 47.73 71.33 47.48 72.49 46.98C73.65 46.49 74.54 45.79 75.17 44.89C75.81 43.98 76.13 42.92 76.13 41.72C76.13 40.55 75.82 39.56 75.22 38.75C74.63 37.93 73.81 37.28 72.75 36.82C71.69 36.34 70.47 36.04 69.09 35.92L67.64 35.79C66.77 35.72 66.15 35.49 65.77 35.09C65.39 34.7 65.19 34.23 65.19 33.7C65.19 33.28 65.3 32.91 65.51 32.56C65.71 32.2 66.03 31.92 66.44 31.71C66.87 31.51 67.4 31.4 68.03 31.4C68.68 31.4 69.23 31.52 69.66 31.76C69.76 31.81 69.85 31.87 69.93 31.93L69.95 31.94C69.98 31.96 70.01 31.98 70.05 32.01C70.31 32.21 70.52 32.44 70.67 32.72C70.9 33.1 71.01 33.52 71.01 33.98L75.17 33.98C75.17 32.74 74.88 31.67 74.31 30.76C73.74 29.83 72.92 29.11 71.84 28.62C70.79 28.1 69.51 27.84 68.03 27.84C66.61 27.84 65.38 28.08 64.34 28.56C63.3 29.03 62.49 29.7 61.9 30.58C61.33 31.45 61.04 32.49 61.04 33.7C61.04 35.37 61.6 36.71 62.73 37.72C63.85 38.74 65.36 39.32 67.25 39.48L68.67 39.61C69.83 39.71 70.67 39.94 71.19 40.3C71.71 40.65 71.97 41.12 71.97 41.72C71.97 42 71.93 42.26 71.83 42.5C71.77 42.68 71.67 42.85 71.56 43.01C71.28 43.37 70.87 43.66 70.34 43.86C69.8 44.07 69.13 44.17 68.34 44.17C67.45 44.17 66.74 44.05 66.18 43.81C65.63 43.55 65.21 43.22 64.93 42.8C64.68 42.39 64.55 41.94 64.55 41.46L60.42 41.46C60.42 42.68 60.72 43.77 61.33 44.71C61.93 45.64 62.82 46.38 64 46.93Z" fill="#000000" fill-opacity="1.000000" fill-rule="nonzero"/>
		<path id="Vector" d="M91.89 47.42C90.45 47.42 89.29 47.25 88.41 46.91C87.52 46.55 86.87 45.95 86.46 45.13C86.06 44.28 85.86 43.15 85.86 41.72L85.86 36.12L83.71 36.12L83.71 33.1L85.86 33.1L85.86 29.29L89.73 29.29L89.73 33.1L93.89 33.1L93.89 36.12L89.73 36.12L89.73 41.88C89.73 42.55 89.9 43.06 90.25 43.42C90.61 43.77 91.12 43.94 91.78 43.94L93.89 43.94L93.89 47.42L91.89 47.42Z" fill="#000000" fill-opacity="1.000000" fill-rule="nonzero"/>
		<path id="Vector" d="M98.89 47.11C99.82 47.53 100.9 47.73 102.11 47.73C103.3 47.73 104.36 47.53 105.27 47.11C106.19 46.7 106.95 46.12 107.56 45.38C108.17 44.64 108.57 43.8 108.78 42.86L104.96 42.86C104.79 43.29 104.46 43.65 103.98 43.94C103.49 44.23 102.87 44.38 102.11 44.38C101.64 44.38 101.21 44.32 100.84 44.21C100.56 44.13 100.31 44.01 100.08 43.86C99.56 43.52 99.18 43.04 98.94 42.42C98.87 42.24 98.81 42.06 98.77 41.86C98.72 41.67 98.68 41.47 98.65 41.26L109.04 41.26L109.04 39.86C109.04 38.57 108.76 37.39 108.21 36.3C107.65 35.2 106.85 34.32 105.79 33.65C104.76 32.96 103.47 32.61 101.95 32.61C100.79 32.61 99.75 32.82 98.83 33.23C97.94 33.63 97.18 34.17 96.58 34.86C95.97 35.55 95.5 36.33 95.17 37.21C94.86 38.07 94.71 38.97 94.71 39.91L94.71 40.43C94.71 41.34 94.86 42.24 95.17 43.11C95.5 43.97 95.97 44.76 96.58 45.46C97.2 46.15 97.97 46.7 98.89 47.11ZM98.72 38.71C98.73 38.65 98.74 38.6 98.76 38.54C98.79 38.4 98.83 38.26 98.88 38.13C98.91 38.05 98.93 37.98 98.97 37.9C99.22 37.27 99.61 36.78 100.11 36.46C100.3 36.34 100.5 36.24 100.72 36.16C101.08 36.03 101.5 35.97 101.95 35.97C102.66 35.97 103.25 36.13 103.72 36.46C104.2 36.77 104.57 37.22 104.81 37.83C104.83 37.87 104.85 37.92 104.86 37.97C104.89 38.05 104.92 38.14 104.94 38.22C104.98 38.34 105.01 38.47 105.04 38.61C105.06 38.71 105.08 38.81 105.09 38.91L98.68 38.91C98.69 38.84 98.7 38.77 98.72 38.71Z" fill="#000000" fill-opacity="1.000000" fill-rule="evenodd"/>
		<path id="Vector" d="M110.75 47.24L110.75 33.1L114.05 33.1L114.05 36.67C114.1 36.45 114.15 36.25 114.2 36.06C114.25 35.89 114.31 35.73 114.36 35.58C114.73 34.62 115.27 33.9 116 33.41C116.73 32.92 117.62 32.67 118.67 32.67L118.85 32.67C119.93 32.67 120.82 32.92 121.53 33.41C122.26 33.9 122.8 34.62 123.16 35.58L123.19 35.65L123.22 35.72C123.23 35.67 123.25 35.63 123.27 35.58C123.65 34.62 124.2 33.9 124.93 33.41C125.66 32.92 126.55 32.67 127.61 32.67L127.79 32.67C128.86 32.67 129.76 32.92 130.49 33.41C131.23 33.9 131.79 34.62 132.17 35.58C132.56 36.54 132.75 37.75 132.75 39.19L132.75 47.24L128.59 47.24L128.59 38.96C128.59 38.19 128.38 37.56 127.97 37.08C127.57 36.6 127 36.35 126.26 36.35C125.51 36.35 124.92 36.6 124.49 37.1C124.06 37.58 123.84 38.23 123.84 39.04L123.84 47.24L119.66 47.24L119.66 38.96C119.66 38.19 119.45 37.56 119.04 37.08C118.64 36.6 118.08 36.35 117.35 36.35C116.59 36.35 115.99 36.6 115.56 37.1C115.12 37.58 114.91 38.23 114.91 39.04L114.91 47.24L110.75 47.24Z" fill="#000000" fill-opacity="1.000000" fill-rule="nonzero"/>
		<path id="Vector" d="M143.84 44.52L143.84 47.24L147.14 47.24L147.14 38.57C147.14 37.27 146.88 36.2 146.36 35.37C145.84 34.53 145.08 33.9 144.08 33.49C143.09 33.08 141.87 32.87 140.42 32.87C140.1 32.87 139.77 32.88 139.43 32.88C139.23 32.89 139.02 32.89 138.81 32.9C138.23 32.92 137.68 32.94 137.14 32.98L136.73 33C136.52 33.02 136.33 33.03 136.14 33.05C136 33.06 135.87 33.07 135.74 33.08L135.74 36.56C136.28 36.53 136.88 36.49 137.53 36.46C137.72 36.45 137.9 36.44 138.08 36.43C138.34 36.42 138.6 36.41 138.86 36.4C139.06 36.39 139.26 36.39 139.46 36.38C140.08 36.36 140.58 36.36 140.96 36.36C141.72 36.36 142.28 36.54 142.62 36.9C142.97 37.26 143.14 37.8 143.14 38.52L143.14 38.57L140.57 38.57C139.31 38.57 138.19 38.74 137.22 39.06C136.25 39.37 135.5 39.86 134.96 40.53C134.43 41.19 134.16 42.03 134.16 43.06C134.16 44.01 134.37 44.83 134.81 45.51C135.24 46.18 135.84 46.7 136.6 47.06C137.38 47.42 138.28 47.6 139.3 47.6C140.29 47.6 141.12 47.42 141.79 47.06C142.48 46.7 143.02 46.18 143.4 45.51C143.47 45.4 143.53 45.28 143.59 45.16C143.67 44.99 143.75 44.81 143.81 44.62L143.84 44.52ZM143.14 42.01L143.14 40.87L140.55 40.87C139.82 40.87 139.26 41.05 138.86 41.41C138.48 41.76 138.29 42.23 138.29 42.83C138.29 43.11 138.33 43.37 138.43 43.6C138.52 43.84 138.67 44.04 138.86 44.22C139.26 44.57 139.82 44.74 140.55 44.74C140.68 44.74 140.82 44.73 140.95 44.72C141.05 44.71 141.15 44.69 141.25 44.67C141.44 44.63 141.62 44.58 141.79 44.51C142.17 44.34 142.48 44.05 142.73 43.66C142.97 43.26 143.11 42.71 143.14 42.01Z" fill="#000000" fill-opacity="1.000000" fill-rule="evenodd"/>
		<path id="Vector" d="M149.63 47.24L149.63 33.1L152.92 33.1L152.92 37.77C153.08 36.44 153.48 35.36 154.12 34.55C154.98 33.47 156.23 32.92 157.86 32.92L158.4 32.92L158.4 36.48L157.36 36.48C156.22 36.48 155.34 36.79 154.72 37.41C154.09 38.01 153.78 38.89 153.78 40.04L153.78 47.24L149.63 47.24Z" fill="#000000" fill-opacity="1.000000" fill-rule="nonzero"/>
		<path id="Vector" d="M163.67 40.64L165.05 40.64L169.54 47.24L174.21 47.24L168.52 39.13L173.2 33.1L168.84 33.1L163.67 39.83L163.67 28.41L159.52 28.41L159.52 47.24L163.67 47.24L163.67 40.64Z" fill="#000000" fill-opacity="1.000000" fill-rule="nonzero"/>
	</g>
</svg>
